<?xml version="1.0" encoding="UTF-8"?>
<svg xmlns="http://www.w3.org/2000/svg" xmlns:xlink="http://www.w3.org/1999/xlink" viewBox="0 0 1280 720">
  <defs>
    <style>
      .cls-1, .cls-2, .cls-3 {
        fill: none;
      }

      .cls-1, .cls-2, .cls-4, .cls-5, .cls-6 {
        stroke: #000;
        stroke-linejoin: bevel;
      }

      .cls-1, .cls-4 {
        stroke-width: 8px;
      }

      .cls-2, .cls-5, .cls-6 {
        stroke-linecap: square;
      }

      .cls-2, .cls-6 {
        stroke-width: 3px;
      }

      .cls-7 {
        clip-path: url(#clippath-2);
      }

      .cls-8 {
        clip-path: url(#clippath-6);
      }

      .cls-3, .cls-9 {
        stroke-width: 0px;
      }

      .cls-10 {
        clip-path: url(#clippath-7);
      }

      .cls-11 {
        clip-path: url(#clippath-1);
      }

      .cls-12 {
        clip-path: url(#clippath-4);
      }

      .cls-9 {
        fill: #fff;
      }

      .cls-13 {
        clip-path: url(#clippath-9);
      }

      .cls-14 {
        clip-path: url(#clippath);
      }

      .cls-4 {
        fill: #e6e6e6;
      }

      .cls-15 {
        clip-path: url(#clippath-3);
      }

      .cls-16 {
        clip-path: url(#clippath-8);
      }

      .cls-17 {
        clip-path: url(#clippath-5);
      }
    </style>
    <clipPath id="clippath">
      <rect class="cls-3" x="604.66" y="244.81" width="34.67" height="80.95"/>
    </clipPath>
    <clipPath id="clippath-1">
      <rect class="cls-3" x="639.34" y="244.81" width="34.67" height="80.95"/>
    </clipPath>
    <clipPath id="clippath-2">
      <rect class="cls-3" x="577.63" y="200.78" width="7.69" height="17.05"/>
    </clipPath>
    <clipPath id="clippath-3">
      <rect class="cls-3" x="585.32" y="200.78" width="7.69" height="17.05"/>
    </clipPath>
    <clipPath id="clippath-4">
      <rect class="cls-3" x="576.44" y="221.57" width="8.26" height="18.89"/>
    </clipPath>
    <clipPath id="clippath-5">
      <rect class="cls-3" x="584.7" y="221.57" width="8.26" height="18.89"/>
    </clipPath>
    <clipPath id="clippath-6">
      <rect class="cls-3" x="692.62" y="358.63" width="7.69" height="17.05"/>
    </clipPath>
    <clipPath id="clippath-7">
      <rect class="cls-3" x="684.92" y="358.63" width="7.69" height="17.05"/>
    </clipPath>
    <clipPath id="clippath-8">
      <rect class="cls-3" x="693.23" y="336.01" width="8.26" height="18.89"/>
    </clipPath>
    <clipPath id="clippath-9">
      <rect class="cls-3" x="684.97" y="336.01" width="8.26" height="18.89"/>
    </clipPath>
  </defs>
  <g id="card">
    <rect class="cls-9" x="569" y="190" width="139" height="196" rx="4.37" ry="4.37"/>
    <g>
      <g id="_Mirror_Repeat_" data-name="&amp;lt;Mirror Repeat&amp;gt;">
        <g class="cls-14">
          <path class="cls-5" d="m642.12,245.48s-6.78,13.11-11.19,19.42c-4.07,5.83-23.41,19.48-25.43,29.13-2.02,9.65,5.51,16.23,13.6,16.23,7.68,0,9.8.28,15.9-5.55.28-.27.92-1.55,1.02-1.94,2.02-7.72,1.02,12.62,1.02,12.62l-8.14,4.86,12.21,4.86"/>
        </g>
      </g>
      <g id="_Mirror_Repeat_-2" data-name="&amp;lt;Mirror Repeat&amp;gt;">
        <g class="cls-11">
          <path class="cls-5" d="m636.56,245.48s6.78,13.11,11.19,19.42c4.07,5.83,23.41,19.48,25.43,29.13s-5.51,16.23-13.6,16.23c-7.68,0-9.8.28-15.9-5.55-.28-.27-.92-1.55-1.02-1.94-2.02-7.72-1.02,12.62-1.02,12.62l8.14,4.86-12.21,4.86"/>
        </g>
      </g>
    </g>
    <g>
      <g>
        <g id="_Mirror_Repeat_-3" data-name="&amp;lt;Mirror Repeat&amp;gt;">
          <g class="cls-7">
            <path class="cls-6" d="m579.13,216.34v-3.26c0-.78.16-1.54.46-2.25.99-2.29,3.41-7.34,5.84-8.15"/>
          </g>
        </g>
        <g id="_Mirror_Repeat_-4" data-name="&amp;lt;Mirror Repeat&amp;gt;">
          <g class="cls-15">
            <path class="cls-6" d="m591.52,216.34v-3.26c0-.78-.16-1.54-.46-2.25-.99-2.29-3.41-7.34-5.84-8.15"/>
          </g>
        </g>
      </g>
      <line class="cls-2" x1="581.5" y1="212.5" x2="589" y2="212.5"/>
      <g>
        <g id="_Mirror_Repeat_-5" data-name="&amp;lt;Mirror Repeat&amp;gt;">
          <g class="cls-12">
            <path class="cls-5" d="m585.1,222.24s-1.5,2.89-2.47,4.29c-.9,1.29-5.17,4.3-5.61,6.43s1.22,3.58,3,3.58,2.16.06,3.51-1.22c.06-.06.2-.34.22-.43.45-1.7.22,2.79.22,2.79l-1.8,1.07,2.69,1.07"/>
          </g>
        </g>
        <g id="_Mirror_Repeat_-6" data-name="&amp;lt;Mirror Repeat&amp;gt;">
          <g class="cls-17">
            <path class="cls-5" d="m584.31,222.24s1.5,2.89,2.47,4.29c.9,1.29,5.17,4.3,5.61,6.43s-1.22,3.58-3,3.58-2.16.06-3.51-1.22c-.06-.06-.2-.34-.22-.43-.45-1.7-.22,2.79-.22,2.79l1.8,1.07-2.69,1.07"/>
          </g>
        </g>
      </g>
    </g>
    <g>
      <g>
        <g id="_Mirror_Repeat_-7" data-name="&amp;lt;Mirror Repeat&amp;gt;">
          <g class="cls-8">
            <path class="cls-6" d="m698.81,360.13v3.26c0,.78-.16,1.54-.46,2.25-.99,2.29-3.41,7.34-5.84,8.15"/>
          </g>
        </g>
        <g id="_Mirror_Repeat_-8" data-name="&amp;lt;Mirror Repeat&amp;gt;">
          <g class="cls-10">
            <path class="cls-6" d="m686.42,360.13v3.26c0,.78.16,1.54.46,2.25.99,2.29,3.41,7.34,5.84,8.15"/>
          </g>
        </g>
      </g>
      <line class="cls-2" x1="696.44" y1="363.97" x2="688.94" y2="363.97"/>
      <g>
        <g id="_Mirror_Repeat_-9" data-name="&amp;lt;Mirror Repeat&amp;gt;">
          <g class="cls-16">
            <path class="cls-5" d="m692.84,354.23s1.5-2.89,2.47-4.29c.9-1.29,5.17-4.3,5.61-6.43s-1.22-3.58-3-3.58-2.16-.06-3.51,1.22c-.06.06-.2.34-.22.43-.45,1.7-.22-2.79-.22-2.79l1.8-1.07-2.69-1.07"/>
          </g>
        </g>
        <g id="_Mirror_Repeat_-10" data-name="&amp;lt;Mirror Repeat&amp;gt;">
          <g class="cls-13">
            <path class="cls-5" d="m693.63,354.23s-1.5-2.89-2.47-4.29c-.9-1.29-5.17-4.3-5.61-6.43s1.22-3.58,3-3.58,2.16-.06,3.51,1.22c.06.06.2.34.22.43.45,1.7.22-2.79.22-2.79l-1.8-1.07,2.69-1.07"/>
          </g>
        </g>
      </g>
    </g>
  </g>
  <g id="B">
    <path class="cls-4" d="m377,308l-8.54-10.03-38.46-41.97,19-29-1.35-27s-9.65-15-31.65-17-36-3-36-3l-14,13v185.85l-13,12.15v14.47l6.5,7.26,9.5-8.73,63,1s43-2.91,55-16.96c12-14.04-10-80.04-10-80.04Zm-81-96c4-6,19.16,0,19.16,0l6.63,12.33-13.79,30.67-12,10.4v-53.4Zm41,157l-40-2,1-63,17.16-17.62s26.84,13.62,33.84,32.62,8,43,8,43l-20,7Z"/>
    <path class="cls-1" d="m308,255l-12,10.4v-53.4c4-6,19.16,0,19.16,0l6.63,12.33-13.79,30.67Z"/>
    <path class="cls-1" d="m357,362l-20,7-40-2,1-63,17.16-17.62s26.84,13.62,33.84,32.62,8,43,8,43Z"/>
    <path class="cls-1" d="m321.79,224.33l-13.79,30.67-12,10.4v-53.4c4-6,19.16,0,19.16,0l6.63,12.33Z"/>
    <path class="cls-1" d="m357,362l-20,7-40-2,1-63,17.16-17.62s26.84,13.62,33.84,32.62,8,43,8,43Z"/>
  </g>
  <g id="A">
    <path class="cls-1" d="m445,225.52v25.48l-31,34v-32.01c3-18.02,26-34.99,26-34.99l5,7.52Z"/>
    <path class="cls-4" d="m449,176c-17,2-22,11-39,28s-22,43-22,43l-1,168,5,5c3,0,10-13,12-18s11-11,11-11v-64l28-28v80l5,5,7-5c-1-20,14-31.69,14-31.69v-128.31s-3-45-20-43Zm-4,75l-31,34v-32.01c3-18.02,26-34.99,26-34.99l5,7.52v25.48Z"/>
    <path class="cls-1" d="m445,225.52v25.48l-31,34v-32.01c3-18.02,26-34.99,26-34.99l5,7.52Z"/>
  </g>
  <g id="L">
    <path class="cls-4" d="m566,357l-2,37-6,8-13-12-39.44-1.25-29.32,21.25-7.24-6.57v-12.53l12-16.9-1-144-7-20,15-23s23-27,32-24v24.43s-13,1.57-14,17.57,0,146.85,0,146.85l35,.15,14-7,11,12Z"/>
  </g>
  <g id="T">
    <path class="cls-4" d="m862.7,175.94c-.7,10.06-17.7,22.06-17.7,22.06l-34,21-4-7h-31l-2,118,7,27s-15,20-21,46l-6.7,7-8.3-8,2-189h-18l-9,5.13-6-5.13-6-23s9-27,12-25l18,14h90.33l27.11-14s7.96.87,7.26,10.94Z"/>
  </g>
  <g id="R">
    <path class="cls-4" d="m898.04,286.38s16.96-30.38,17.96-37.38,0-29-8-37-44-12-58-12-28,12.21-28,12.21v211.79l6,7,5.65-7s6.35-24,16.35-28v-52.49l25-23.51s14,10,17,22,2,65,2,65l9,7,6-11s3-23,17-35v-40.95s-15.93-31.28-27.96-40.67Zm-24.04-7.56l-25,21.29v-72.11l4-2s.14.02.41.06c3.98.59,35.59,5.63,35.59,15.94,0,11-15,36.82-15,36.82Z"/>
    <path class="cls-1" d="m889,242c0,11-15,36.82-15,36.82l-25,21.29v-72.11l4-2s.14.02.41.06c3.98.59,35.59,5.63,35.59,15.94Z"/>
    <path class="cls-1" d="m889,242c0,11-15,36.82-15,36.82l-25,21.29v-72.11l4-2s.14.02.41.06c3.98.59,35.59,5.63,35.59,15.94Z"/>
  </g>
  <g id="O">
    <path class="cls-1" d="m1000,214.12v131.88c-4,7-14.39,13-14.39,13h-25.61c-4-4-7-13-7-13v-127c13-15,40-12,40-12l7,7.12Z"/>
    <path class="cls-4" d="m1025,207.49s-5-30.49-29-35.49h-25.35s-44.65,5.97-44.65,35.49v167.48s10,14.03,26,20.03,39.46,0,39.46,0c0,0,31.54-13,33.54-25s0-162.51,0-162.51Zm-25,138.51c-4,7-14.39,13-14.39,13h-25.61c-4-4-7-13-7-13v-127c13-15,40-12,40-12l7,7.12v131.88Z"/>
    <path class="cls-1" d="m1000,214.12v131.88c-4,7-14.39,13-14.39,13h-25.61c-4-4-7-13-7-13v-127c13-15,40-12,40-12l7,7.12Z"/>
  </g>
</svg>